# Blender v2.93.4 OBJ File: ''
# www.blender.org
o Cube
v 10.000000 0.500000 -10.000000
v 10.000000 -0.500000 -10.000000
v 10.000000 0.500000 10.000000
v 10.000000 -0.500000 10.000000
v -10.000000 0.500000 -10.000000
v -10.000000 -0.500000 -10.000000
v -10.000000 0.500000 10.000000
v -10.000000 -0.500000 10.000000
vt 19.998001 -18.997997
vt 0.002005 0.997999
vt 0.002000 -18.997995
vt 0.000000 1.000000
vt 1.000000 -19.000000
vt 1.000000 1.000000
vt 1.000000 -19.000000
vt 0.000000 1.000000
vt 0.000000 -19.000000
vt 19.997999 0.998001
vt 0.002005 -18.997997
vt 19.997999 -18.998001
vt 0.000000 1.000000
vt 1.000000 -19.000000
vt 1.000000 1.000000
vt 1.000000 -19.000000
vt 0.000000 1.000000
vt 0.000000 -19.000000
vt 19.997999 0.997999
vt 0.000000 -19.000000
vt 1.000000 1.000000
vt 0.002001 0.997997
vt 0.000000 -19.000000
vt 1.000000 1.000000
vn 0.0000 1.0000 0.0000
vn 0.0000 0.0000 1.0000
vn -1.0000 0.0000 0.0000
vn 0.0000 -1.0000 0.0000
vn 1.0000 0.0000 0.0000
vn 0.0000 0.0000 -1.0000
s off
f 5/1/1 3/2/1 1/3/1
f 3/4/2 8/5/2 4/6/2
f 7/7/3 6/8/3 8/9/3
f 2/10/4 8/11/4 6/12/4
f 1/13/5 4/14/5 2/15/5
f 5/16/6 2/17/6 6/18/6
f 5/1/1 7/19/1 3/2/1
f 3/4/2 7/20/2 8/5/2
f 7/7/3 5/21/3 6/8/3
f 2/10/4 4/22/4 8/11/4
f 1/13/5 3/23/5 4/14/5
f 5/16/6 1/24/6 2/17/6
