{
  "accessors": [
    {
      "bufferView": 2,
      "componentType": 5126,
      "count": 50487,
      "max": [
        0.6382761597633362,
        0.6388010382652283,
        1.6088510751724243
      ],
      "min": [
        -0.6382846236228943,
        -0.6435148119926453,
        -0.00041187251918017864
      ],
      "type": "VEC3"
    },
    {
      "bufferView": 2,
      "byteOffset": 605844,
      "componentType": 5126,
      "count": 50487,
      "max": [
        1.0,
        1.0,
        1.0
      ],
      "min": [
        -1.0,
        -1.0,
        -1.0
      ],
      "type": "VEC3"
    },
    {
      "bufferView": 3,
      "componentType": 5126,
      "count": 50487,
      "max": [
        1.0,
        1.0,
        1.0,
        1.0
      ],
      "min": [
        -1.0,
        -1.0,
        -1.0,
        -1.0
      ],
      "type": "VEC4"
    },
    {
      "bufferView": 1,
      "componentType": 5126,
      "count": 50487,
      "max": [
        1.2498046159744263,
        3.6957406997680664
      ],
      "min": [
        -0.7432045340538025,
        -4.3955864906311035
      ],
      "type": "VEC2"
    },
    {
      "bufferView": 1,
      "byteOffset": 403896,
      "componentType": 5126,
      "count": 50487,
      "max": [
        1.2498046159744263,
        3.6957406997680664
      ],
      "min": [
        -0.7432045340538025,
        -4.3955864906311035
      ],
      "type": "VEC2"
    },
    {
      "bufferView": 1,
      "byteOffset": 807792,
      "componentType": 5126,
      "count": 50487,
      "max": [
        1.2498046159744263,
        3.6957406997680664
      ],
      "min": [
        -0.7432045340538025,
        -4.3955864906311035
      ],
      "type": "VEC2"
    },
    {
      "bufferView": 0,
      "componentType": 5125,
      "count": 241272,
      "type": "SCALAR"
    },
    {
      "bufferView": 2,
      "byteOffset": 1211688,
      "componentType": 5126,
      "count": 774,
      "max": [
        0.5493974685668945,
        0.5823909640312195,
        1.580680012702942
      ],
      "min": [
        -0.5494059324264526,
        -0.6084109544754028,
        0.7908787727355957
      ],
      "type": "VEC3"
    },
    {
      "bufferView": 2,
      "byteOffset": 1220976,
      "componentType": 5126,
      "count": 774,
      "max": [
        0.9997839331626892,
        0.00221393839456141,
        0.514262855052948
      ],
      "min": [
        -0.9997839331626892,
        -0.9734169244766235,
        -1.0
      ],
      "type": "VEC3"
    },
    {
      "bufferView": 1,
      "byteOffset": 1211688,
      "componentType": 5126,
      "count": 774,
      "max": [
        22.500001907348633,
        18.828996658325195
      ],
      "min": [
        -21.73958396911621,
        -18.005794525146484
      ],
      "type": "VEC2"
    },
    {
      "bufferView": 0,
      "byteOffset": 965088,
      "componentType": 5125,
      "count": 2676,
      "type": "SCALAR"
    },
    {
      "bufferView": 2,
      "byteOffset": 1230264,
      "componentType": 5126,
      "count": 11519,
      "max": [
        0.5642316937446594,
        0.5724257826805115,
        1.5789533853530884
      ],
      "min": [
        -0.5646305084228516,
        -0.6327458024024963,
        0.772875189781189
      ],
      "type": "VEC3"
    },
    {
      "bufferView": 2,
      "byteOffset": 1368492,
      "componentType": 5126,
      "count": 11519,
      "max": [
        0.9933434724807739,
        0.9992131590843201,
        0.9992402791976929
      ],
      "min": [
        -0.9921008348464966,
        -0.9992231726646423,
        -0.9991500973701477
      ],
      "type": "VEC3"
    },
    {
      "bufferView": 3,
      "byteOffset": 807792,
      "componentType": 5126,
      "count": 11519,
      "max": [
        0.9928022623062134,
        0.9991366863250732,
        0.9991147518157959,
        1.0
      ],
      "min": [
        -0.9920654892921448,
        -0.9992404580116272,
        -0.9992660880088806,
        -1.0
      ],
      "type": "VEC4"
    },
    {
      "bufferView": 1,
      "byteOffset": 1217880,
      "componentType": 5126,
      "count": 11519,
      "max": [
        0.24904179573059082,
        3.6863744258880615
      ],
      "min": [
        -0.33950358629226685,
        1.2119600772857666
      ],
      "type": "VEC2"
    },
    {
      "bufferView": 1,
      "byteOffset": 1310032,
      "componentType": 5126,
      "count": 11519,
      "max": [
        0.24904179573059082,
        3.6863744258880615
      ],
      "min": [
        -0.33950358629226685,
        1.2119600772857666
      ],
      "type": "VEC2"
    },
    {
      "bufferView": 1,
      "byteOffset": 1402184,
      "componentType": 5126,
      "count": 11519,
      "max": [
        0.24904179573059082,
        3.6863744258880615
      ],
      "min": [
        -0.33950358629226685,
        1.2119600772857666
      ],
      "type": "VEC2"
    },
    {
      "bufferView": 0,
      "byteOffset": 975792,
      "componentType": 5125,
      "count": 17280,
      "type": "SCALAR"
    },
    {
      "bufferView": 2,
      "byteOffset": 1506720,
      "componentType": 5126,
      "count": 5225,
      "max": [
        0.6461601257324219,
        0.6458909511566162,
        0.9994342923164368
      ],
      "min": [
        -0.6461684703826904,
        -0.6202652454376221,
        -0.004417773801833391
      ],
      "type": "VEC3"
    },
    {
      "bufferView": 2,
      "byteOffset": 1569420,
      "componentType": 5126,
      "count": 5225,
      "max": [
        0.9999998211860657,
        0.9999943375587463,
        0.9999299645423889
      ],
      "min": [
        -0.9999997615814209,
        -0.9999454617500305,
        -0.999941349029541
      ],
      "type": "VEC3"
    },
    {
      "bufferView": 3,
      "byteOffset": 992096,
      "componentType": 5126,
      "count": 5225,
      "max": [
        0.9999999403953552,
        0.9999991059303284,
        0.9999994039535522,
        1.0
      ],
      "min": [
        -1.0,
        -0.9999986886978149,
        -0.9999990463256836,
        -1.0
      ],
      "type": "VEC4"
    },
    {
      "bufferView": 1,
      "byteOffset": 1494336,
      "componentType": 5126,
      "count": 5225,
      "max": [
        3.306370973587036,
        1.7854464054107666
      ],
      "min": [
        -1.1498185396194458,
        -1.757302165031433
      ],
      "type": "VEC2"
    },
    {
      "bufferView": 1,
      "byteOffset": 1536136,
      "componentType": 5126,
      "count": 5225,
      "max": [
        3.306370973587036,
        1.7854464054107666
      ],
      "min": [
        -1.1498185396194458,
        -1.757302165031433
      ],
      "type": "VEC2"
    },
    {
      "bufferView": 1,
      "byteOffset": 1577936,
      "componentType": 5126,
      "count": 5225,
      "max": [
        3.306370973587036,
        1.7854464054107666
      ],
      "min": [
        -1.1498185396194458,
        -1.757302165031433
      ],
      "type": "VEC2"
    },
    {
      "bufferView": 0,
      "byteOffset": 1044912,
      "componentType": 5125,
      "count": 26352,
      "type": "SCALAR"
    }
  ],
  "asset": {
    "extras": {
      "author": "Pascal Garten (https://sketchfab.com/pascal.garten)",
      "license": "CC-BY-SA-4.0 (http://creativecommons.org/licenses/by-sa/4.0/)",
      "source": "https://sketchfab.com/3d-models/armchair-with-rattan-natural-themasie-emba-b5b5e6f0f24346a2b0db89c8f2356421",
      "title": "Armchair With Rattan Natural - TheMasie EMBA"
    },
    "generator": "Sketchfab-12.0.1",
    "version": "2.0"
  },
  "bufferViews": [
    {
      "buffer": 0,
      "byteLength": 1150320,
      "name": "floatBufferViews",
      "target": 34963
    },
    {
      "buffer": 0,
      "byteLength": 1619736,
      "byteOffset": 1150320,
      "byteStride": 8,
      "name": "floatBufferViews",
      "target": 34962
    },
    {
      "buffer": 0,
      "byteLength": 1632120,
      "byteOffset": 2770056,
      "byteStride": 12,
      "name": "floatBufferViews",
      "target": 34962
    },
    {
      "buffer": 0,
      "byteLength": 1075696,
      "byteOffset": 4402176,
      "byteStride": 16,
      "name": "floatBufferViews",
      "target": 34962
    }
  ],
  "buffers": [
    {
      "byteLength": 5477872,
      "uri": "scene.bin"
    }
  ],
  "images": [
    {
      "uri": "textures/M_Chair_Wood_Bentwood_Natural_4K_baseColor.png"
    },
    {
      "uri": "textures/M_Chair_Wood_Bentwood_Natural_4K_metallicRoughness.png"
    },
    {
      "uri": "textures/M_Chair_Wood_Bentwood_Natural_4K_normal.png"
    },
    {
      "uri": "textures/M_Vienna_Straw_baseColor.png"
    },
    {
      "uri": "textures/M_Chair_Wood_Bentwood_Bright_4K_baseColor.png"
    },
    {
      "uri": "textures/M_Chair_Wood_Bentwood_Bright_4K_metallicRoughness.png"
    },
    {
      "uri": "textures/M_Waved_Rattan_Natural_4K_baseColor.png"
    },
    {
      "uri": "textures/M_Waved_Rattan_Natural_4K_metallicRoughness.png"
    },
    {
      "uri": "textures/M_Waved_Rattan_Natural_4K_normal.png"
    }
  ],
  "materials": [
    {
      "doubleSided": true,
      "name": "M_Chair_Wood_Bentwood_Natural_4K",
      "normalTexture": {
        "index": 2
      },
      "pbrMetallicRoughness": {
        "baseColorTexture": {
          "index": 0
        },
        "metallicFactor": 0.0,
        "metallicRoughnessTexture": {
          "index": 1
        }
      }
    },
    {
      "alphaCutoff": 0.6875068373,
      "alphaMode": "MASK",
      "doubleSided": true,
      "name": "M_Vienna_Straw",
      "pbrMetallicRoughness": {
        "baseColorFactor": [
          0.833171493,
          0.833171493,
          0.833171493,
          1.0
        ],
        "baseColorTexture": {
          "index": 3
        },
        "metallicFactor": 0.0,
        "roughnessFactor": 0.816250097
      }
    },
    {
      "doubleSided": true,
      "name": "M_Chair_Wood_Bentwood_Bright_4K",
      "normalTexture": {
        "index": 2
      },
      "pbrMetallicRoughness": {
        "baseColorTexture": {
          "index": 4
        },
        "metallicFactor": 0.0,
        "metallicRoughnessTexture": {
          "index": 5
        }
      }
    },
    {
      "doubleSided": true,
      "name": "M_Waved_Rattan_Natural_4K",
      "normalTexture": {
        "index": 8
      },
      "pbrMetallicRoughness": {
        "baseColorTexture": {
          "index": 6
        },
        "metallicFactor": 0.0,
        "metallicRoughnessTexture": {
          "index": 7
        }
      }
    }
  ],
  "meshes": [
    {
      "name": "SM_TheMasie_Armchair_EMBA_Natural_HP_M_Chair_Wood_Bentwood_Natural_4K_0",
      "primitives": [
        {
          "attributes": {
            "NORMAL": 1,
            "POSITION": 0,
            "TANGENT": 2,
            "TEXCOORD_0": 3,
            "TEXCOORD_1": 4,
            "TEXCOORD_2": 5
          },
          "indices": 6,
          "material": 0,
          "mode": 4
        }
      ]
    },
    {
      "name": "SM_TheMasie_Armchair_EMBA_Natural_HP_M_Vienna_Straw_0",
      "primitives": [
        {
          "attributes": {
            "NORMAL": 8,
            "POSITION": 7,
            "TEXCOORD_0": 9
          },
          "indices": 10,
          "material": 1,
          "mode": 4
        }
      ]
    },
    {
      "name": "SM_TheMasie_Armchair_EMBA_Natural_HP_M_Chair_Wood_Bentwood_Bright_4K_0",
      "primitives": [
        {
          "attributes": {
            "NORMAL": 12,
            "POSITION": 11,
            "TANGENT": 13,
            "TEXCOORD_0": 14,
            "TEXCOORD_1": 15,
            "TEXCOORD_2": 16
          },
          "indices": 17,
          "material": 2,
          "mode": 4
        }
      ]
    },
    {
      "name": "SM_TheMasie_Armchair_EMBA_Natural_HP_M_Waved_Rattan_Natural_4K_0",
      "primitives": [
        {
          "attributes": {
            "NORMAL": 19,
            "POSITION": 18,
            "TANGENT": 20,
            "TEXCOORD_0": 21,
            "TEXCOORD_1": 22,
            "TEXCOORD_2": 23
          },
          "indices": 24,
          "material": 3,
          "mode": 4
        }
      ]
    }
  ],
  "nodes": [
    {
      "children": [
        1
      ],
      "matrix": [
        1.1970031261444092,
        0.0,
        0.0,
        0.0,
        0.0,
        2.6578808623876275e-16,
        -1.1970031261444092,
        0.0,
        0.0,
        1.1970031261444092,
        2.6578808623876275e-16,
        0.0,
        0.0,
        0.0,
        0.0,
        1.0
      ],
      "name": "Sketchfab_model"
    },
    {
      "children": [
        2
      ],
      "matrix": [
        0.009999999776482582,
        0.0,
        0.0,
        0.0,
        0.0,
        0.0,
        0.009999999776482582,
        0.0,
        0.0,
        -0.009999999776482582,
        0.0,
        0.0,
        0.0,
        0.0,
        0.0,
        1.0
      ],
      "name": "abcf34f4365a47e195d87c4b66051556.fbx"
    },
    {
      "children": [
        3
      ],
      "name": "RootNode"
    },
    {
      "children": [
        4,
        5,
        6,
        7
      ],
      "matrix": [
        -55.6612739562946,
        -1.1191522430686738e-12,
        2.167530036275945e-05,
        0.0,
        2.1502946947214105e-05,
        4.1688941836962185e-06,
        55.218677520747605,
        0.0,
        -2.733680517489406e-12,
        55.21867752075179,
        -4.168894177565713e-06,
        0.0,
        0.0,
        -1.1641532182693481e-08,
        0.0,
        1.0
      ],
      "name": "SM_TheMasie_Armchair_EMBA_Natural_HP"
    },
    {
      "mesh": 0,
      "name": "SM_TheMasie_Armchair_EMBA_Natural_HP_M_Chair_Wood_Bentwood_Natural_4K_0"
    },
    {
      "mesh": 1,
      "name": "SM_TheMasie_Armchair_EMBA_Natural_HP_M_Vienna_Straw_0"
    },
    {
      "mesh": 2,
      "name": "SM_TheMasie_Armchair_EMBA_Natural_HP_M_Chair_Wood_Bentwood_Bright_4K_0"
    },
    {
      "mesh": 3,
      "name": "SM_TheMasie_Armchair_EMBA_Natural_HP_M_Waved_Rattan_Natural_4K_0"
    }
  ],
  "samplers": [
    {
      "magFilter": 9729,
      "minFilter": 9987,
      "wrapS": 10497,
      "wrapT": 10497
    }
  ],
  "scene": 0,
  "scenes": [
    {
      "name": "Sketchfab_Scene",
      "nodes": [
        0
      ]
    }
  ],
  "textures": [
    {
      "sampler": 0,
      "source": 0
    },
    {
      "sampler": 0,
      "source": 1
    },
    {
      "sampler": 0,
      "source": 2
    },
    {
      "sampler": 0,
      "source": 3
    },
    {
      "sampler": 0,
      "source": 4
    },
    {
      "sampler": 0,
      "source": 5
    },
    {
      "sampler": 0,
      "source": 6
    },
    {
      "sampler": 0,
      "source": 7
    },
    {
      "sampler": 0,
      "source": 8
    }
  ]
}
