{
    "asset" : {
        "generator" : "Khronos glTF Blender I/O v1.6.16",
        "version" : "2.0"
    },
    "scene" : 0,
    "scenes" : [
        {
            "name" : "Scene",
            "nodes" : [
                3
            ]
        }
    ],
    "nodes" : [
        {
            "mesh" : 0,
            "name" : "Mesh_0"
        },
        {
            "children" : [
                0
            ],
            "name" : "export3dcoat.obj.cleaner"
        },
        {
            "children" : [
                1
            ],
            "name" : "RootNode (model correction matrix)"
        },
        {
            "children" : [
                2
            ],
            "name" : "RootNode (gltf orientation matrix)",
            "rotation" : [
                -0.7071068286895752,
                0,
                0,
                0.7071068286895752
            ]
        }
    ],
    "materials" : [
        {
            "doubleSided" : true,
            "name" : "lambert3SG",
            "normalTexture" : {
                "index" : 0
            },
            "occlusionTexture" : {
                "index" : 1,
                "strength" : 0.800000011920929
            },
            "pbrMetallicRoughness" : {
                "baseColorTexture" : {
                    "index" : 2
                },
                "metallicRoughnessTexture" : {
                    "index" : 1
                }
            }
        }
    ],
    "meshes" : [
        {
            "name" : "Mesh_0",
            "primitives" : [
                {
                    "attributes" : {
                        "POSITION" : 0,
                        "NORMAL" : 1,
                        "TEXCOORD_0" : 2
                    },
                    "indices" : 3,
                    "material" : 0
                }
            ]
        }
    ],
    "textures" : [
        {
            "sampler" : 0,
            "source" : 0
        },
        {
            "sampler" : 0,
            "source" : 1
        },
        {
            "sampler" : 0,
            "source" : 2
        }
    ],
    "images" : [
        {
            "mimeType" : "image/png",
            "name" : "lambert3SG_normal",
            "uri" : "lambert3SG_normal.png"
        },
        {
            "mimeType" : "image/png",
            "name" : "lambert3SG_metallicRoughness",
            "uri" : "lambert3SG_metallicRoughness.png"
        },
        {
            "mimeType" : "image/png",
            "name" : "lambert3SG_baseColor",
            "uri" : "lambert3SG_baseColor.png"
        }
    ],
    "accessors" : [
        {
            "bufferView" : 0,
            "componentType" : 5126,
            "count" : 28989,
            "max" : [
                0.9535613059997559,
                1.0232993364334106,
                2.184786796569824
            ],
            "min" : [
                -0.9495549201965332,
                -0.8515099883079529,
                -0.011841699481010437
            ],
            "type" : "VEC3"
        },
        {
            "bufferView" : 1,
            "componentType" : 5126,
            "count" : 28989,
            "type" : "VEC3"
        },
        {
            "bufferView" : 2,
            "componentType" : 5126,
            "count" : 28989,
            "type" : "VEC2"
        },
        {
            "bufferView" : 3,
            "componentType" : 5123,
            "count" : 140448,
            "type" : "SCALAR"
        }
    ],
    "bufferViews" : [
        {
            "buffer" : 0,
            "byteLength" : 347868,
            "byteOffset" : 0
        },
        {
            "buffer" : 0,
            "byteLength" : 347868,
            "byteOffset" : 347868
        },
        {
            "buffer" : 0,
            "byteLength" : 231912,
            "byteOffset" : 695736
        },
        {
            "buffer" : 0,
            "byteLength" : 280896,
            "byteOffset" : 927648
        }
    ],
    "samplers" : [
        {
            "magFilter" : 9729,
            "minFilter" : 9987
        }
    ],
    "buffers" : [
        {
            "byteLength" : 1208544,
            "uri" : "scene.bin"
        }
    ]
}
